<?xml version="1.0" encoding="UTF-8"?>
<svg width="51px" height="30px" viewBox="0 0 51 30" version="1.1" xmlns="http://www.w3.org/2000/svg" xmlns:xlink="http://www.w3.org/1999/xlink">
    <!-- Generator: Sketch 47.1 (45422) - http://www.bohemiancoding.com/sketch -->
    <title>bar_logo</title>
    <desc>Created with Sketch.</desc>
    <defs></defs>
    <g id="Page-1" stroke="none" stroke-width="1" fill="none" fill-rule="evenodd">
        <g id="Artboard" transform="translate(-790.000000, -191.000000)" fill-rule="nonzero">
            <g id="bar_logo" transform="translate(790.000000, 191.000000)">
                <polygon id="Shape" fill="#FFFFFF" points="19.5997233 0 18.2531621 0 18.2531621 25.2281879 2.01379447 0 0 0 0 29.1785235 1.34656126 29.1785235 1.34656126 6.65234899 15.884585 28.9932886 16.0075494 29.1785235 19.5997233 29.1785235"></polygon>
                <path d="M47.8855731,23.7926174 L45.6681818,25.0731544 C45.4968467,25.1719567 45.3915042,25.3547436 45.3920158,25.552349 L45.3920158,28.1134228 C45.3915042,28.3110282 45.4968467,28.4938151 45.6681818,28.5926174 L47.8855731,29.8731544 C48.0564652,29.9717021 48.267013,29.9717021 48.4379051,29.8731544 L50.6552964,28.5926174 C50.8266316,28.4938151 50.931974,28.3110282 50.9314625,28.1134228 L50.9314625,25.552349 C50.931974,25.3547436 50.8266316,25.1719567 50.6552964,25.0731544 L48.4379051,23.7926174 C48.267013,23.6940697 48.0564652,23.6940697 47.8855731,23.7926174 L47.8855731,23.7926174 Z" id="Shape" fill="#EE7670"></path>
                <path d="M42.1888933,15.4107383 C41.2206306,14.628601 40.0898332,14.0721262 38.8789328,13.7818792 C40.2416206,13.2885906 41.2979051,12.5738255 42.0417391,11.6657718 C43.0802052,10.3707077 43.629645,8.75213647 43.593913,7.09328859 C43.593913,2.38791946 40.0843874,0 33.1641107,0 C30.7612648,0 27.9532411,0.108724832 24.8206719,0.324161074 L24.4396838,0.35033557 L24.4396838,29.1785235 L33.692253,29.1785235 C40.6125296,29.1785235 44.1220553,26.4100671 44.1220553,20.9496644 C44.1200395,18.3503356 43.4709486,16.485906 42.1888933,15.4107383 Z M34.2183794,13.3288591 L28.6245059,13.3288591 L28.6245059,1.46778523 C30.131959,1.3102562 31.6464214,1.22894438 33.1620949,1.22416107 C35.2867589,1.22416107 36.8953755,1.73758389 37.9476285,2.75033557 C38.9998814,3.76308725 39.5260079,5.24697987 39.5260079,7.17986577 C39.5280237,11.1644295 37.7863636,13.1778523 34.2183794,13.3288591 Z M28.6245059,14.5530201 L34.2083004,14.5530201 C36.1313834,14.6053691 37.5888142,15.0362416 38.5382609,15.833557 C39.4877075,16.6308725 39.9332016,18.2496644 39.9332016,20.7060403 C39.9332016,23.190604 39.4514229,25.0469799 38.5039921,26.2228188 C37.5565613,27.3986577 35.9580237,27.9543624 33.692253,27.9543624 L28.6245059,27.9543624 L28.6245059,14.5530201 Z" id="Shape" fill="#FFFFFF"></path>
            </g>
        </g>
    </g>
</svg>