<?xml version="1.0" encoding="UTF-8"?>
<svg width="100px" height="120px" viewBox="0 0 100 120" version="1.1" xmlns="http://www.w3.org/2000/svg" xmlns:xlink="http://www.w3.org/1999/xlink">
    <!-- Generator: Sketch 46.1 (44463) - http://www.bohemiancoding.com/sketch -->
    <title>browse</title>
    <desc>Created with Sketch.</desc>
    <defs></defs>
    <g id="Page-1" stroke="none" stroke-width="1" fill="none" fill-rule="evenodd">
        <g id="browse">
            <g id="Group-6">
                <rect id="Rectangle-2-Copy-2" x="0" y="0" width="100" height="120"></rect>
                <g id="Group-5" transform="translate(5.000000, 14.000000)">
                    <path d="M89.8763424,83.3467108 C89.8763424,82.2766675 89.0045146,81.4082426 87.927073,81.4082426 C87.6268917,81.4082426 87.3411578,81.4792626 87.0896334,81.5984198 L87.0867082,81.5955152 C76.3512792,86.670189 61.4886585,91.8184323 51.6567099,87.5244452 C46.2632936,85.168749 44.9312237,81.0307928 44.8770765,80.8547842 L44.8800044,80.8718573 L41.1329325,81.9475327 C41.2015301,82.1887518 42.9307379,87.8791899 49.9392141,91.0068589 C52.9088499,92.33229 56.3786036,92.9992738 60.3000082,92.9992738 C61.6690341,92.9992738 63.0953142,92.9169901 64.5729975,92.7551499 C71.489829,91.988809 79.6300674,89.4145986 88.7647079,85.0950018 C89.4219505,84.7829401 89.8763424,84.1186835 89.8763424,83.3467108 Z" id="Fill-2" fill="#3C4046"></path>
                    <path d="M39.1463415,52.3123169 C39.1463415,53.3823604 38.2719514,54.2507851 37.1943282,54.2507851 L29.3914032,54.2507851 C28.3137799,54.2507851 27.4393899,53.3823604 27.4393899,52.3123169 L27.4393899,38.1445312 C27.4393899,37.0744851 28.3137799,36.2060629 29.3914032,36.2060629 L37.1943311,36.2060629 C38.2719514,36.2062431 39.1463415,37.074668 39.1463415,38.1445312 L39.1463415,52.3123169 Z" id="Fill-3" fill="#3C4046"></path>
                    <path d="M48.9014638,81.4084201 C48.9014638,82.4784633 48.0296362,83.3468883 46.9521946,83.3468883 L39.1463415,83.3468883 C38.0689024,83.3468883 37.1943282,82.4784633 37.1943282,81.4084201 L37.1943282,67.8482223 C37.1943282,66.778179 38.0689024,65.9097541 39.1463415,65.9097541 L46.9521946,65.9097541 C48.0298149,65.9097541 48.9014638,66.778179 48.9014638,67.8482223 L48.9014638,81.4084201 Z" id="Fill-4" fill="#575D65"></path>
                    <path d="M39.1463415,77.5342108 C39.1463415,76.464345 38.2719514,75.5959255 37.1943282,75.5959255 L37.1943282,79.4726792 C38.2719514,79.4726792 39.1463415,78.6042543 39.1463415,77.5342108 Z" id="Fill-5" fill="#000000" opacity="0.300000012"></path>
                    <path d="M46.9521946,77.5342108 C46.9521946,78.6042543 47.8240222,79.4726792 48.9014638,79.4726792 L48.9014638,75.5959255 C47.8240222,75.596103 46.9521946,76.4645279 46.9521946,77.5342108 Z" id="Fill-6" fill="#000000" opacity="0.300000012"></path>
                    <path d="M33.2928671,31.424011 L33.2928671,63.937134 C33.2928671,69.2869959 37.6602452,73.6234829 43.0478052,73.6234829 C48.4384751,73.6234829 52.8058531,69.2869959 52.8058531,63.937134 L52.8058531,31.424011 L33.2928671,31.424011 Z" id="Fill-7" fill="#D56964"></path>
                    <path d="M46.9521946,0.000726562533 C46.1032326,0.000726562533 45.265793,0.0461367202 44.4426223,0.134050788 L44.4426223,0.119882817 L0.123658463,7.75151353 L0.123658463,38.7490316 L43.9653648,46.3127274 C43.9767055,46.3156348 43.9882306,46.3156348 43.9997555,46.3156348 L44.4428038,46.3666769 C45.2659718,46.4545898 46.1034113,46.5 46.9523788,46.5 C59.8827454,46.5 70.36665,36.089813 70.36665,23.2503629 C70.3664658,10.4107322 59.882377,0.000726562533 46.9521946,0.000726562533 Z" id="Fill-9" fill="#EE7670"></path>
                    <path d="M35.039269,26.2586944 L31.1348799,18.5106323 C30.8147579,17.8748901 30.1545761,17.4378631 29.3914032,17.4378631 C28.3137799,17.4378631 27.4393899,18.3062866 27.4393899,19.3761497 C27.4393899,19.6883903 27.5165845,19.9806502 27.6479265,20.2418487 L27.6449984,20.2418487 L31.5464623,27.9926367 L31.5493904,27.9926367 C31.8695124,28.6254716 32.529694,29.0625 33.2928671,29.0625 C34.3704902,29.0625 35.2450617,28.1967995 35.2450617,27.1242118 C35.2450617,26.8148773 35.1678671,26.5197113 35.0363409,26.2585115 L35.039269,26.2585115 L35.039269,26.2586944 Z" id="Fill-10" fill="#000000" opacity="0.200000003"></path>
                    <path d="M42.8420126,26.2586944 L38.9405488,18.5106323 L38.9376207,18.5106323 C38.6174987,17.8748901 37.9602423,17.4378631 37.1943282,17.4378631 C36.1167051,17.4378631 35.2450588,18.3062866 35.2450588,19.3761497 C35.2450588,19.6883903 35.3193282,19.9806502 35.4508515,20.2418487 L39.3521312,27.9926367 L39.3550593,27.9926367 C39.6751813,28.6254716 40.3326192,29.0625 41.098536,29.0625 C42.1761591,29.0625 43.0478052,28.1967995 43.0478052,27.1242118 C43.0478052,26.8148802 42.973536,26.5197142 42.8420126,26.2586944 Z" id="Fill-11" fill="#000000" opacity="0.200000003"></path>
                    <path d="M50.6449405,26.2586944 L50.6478659,26.2586944 L46.7464019,18.5106323 L46.7434765,18.5106323 C46.4233546,17.8748901 45.7631702,17.4378631 45,17.4378631 C43.9223768,17.4378631 43.0478052,18.3062866 43.0478052,19.3761497 C43.0478052,19.6883903 43.125,19.9806502 43.256526,20.2418487 L43.2535979,20.2418487 L47.1579873,27.9926367 C47.4781092,28.6254716 48.1382936,29.0625 48.9014638,29.0625 C49.9790843,29.0625 50.8536585,28.1967995 50.8536585,27.1242118 C50.8536585,26.8148802 50.7764638,26.5197142 50.6449405,26.2586944 Z" id="Fill-12" fill="#000000" opacity="0.200000003"></path>
                    <polygon id="Fill-13" fill="#000000" opacity="0.200000003" points="7.9006095 6.41191392 0.123658463 7.75151353 0.123658463 38.7490316 7.9006095 40.091536"></polygon>
                    <path d="M45,56.1863487 L41.0557323,56.1863487 C39.9781092,56.1863487 39.1035377,57.0547736 39.1035377,58.124634 C39.1035377,59.1946775 39.978112,60.0631022 41.0557323,60.0631022 L45,60.0631022 C46.0776203,60.0631022 46.9521946,59.1946775 46.9521946,58.124634 C46.9521946,57.0547736 46.0776203,56.1863487 45,56.1863487 Z" id="Fill-14" fill="#000000" opacity="0.200000003"></path>
                </g>
            </g>
        </g>
    </g>
</svg>