<svg xmlns="http://www.w3.org/2000/svg" width="18" height="18" viewBox="0 0 18 18">
    <path fill="#EE7670" fill-rule="evenodd" d="M9 0C4.01 0 0 4.01 0 9s4.01 9 9 9 9-4.01 9-9-4.01-9-9-9zm.818 16.282v-2.373c0-.49-.327-.818-.818-.818-.49 0-.818.327-.818.818v2.373c-3.437-.41-6.137-3.11-6.464-6.464h2.373c.49 0 .818-.327.818-.818 0-.49-.327-.818-.818-.818H1.718c.41-3.437 3.11-6.137 6.464-6.464v2.373c0 .49.327.818.818.818.49 0 .818-.327.818-.818V1.718c3.437.41 6.137 3.11 6.464 6.464h-2.373c-.49 0-.818.327-.818.818 0 .49.327.818.818.818h2.373a7.159 7.159 0 0 1-6.464 6.464z"/>
</svg>
