<?xml version="1.0" encoding="UTF-8"?>
<svg width="98px" height="50px" viewBox="0 0 98 50" version="1.1" xmlns="http://www.w3.org/2000/svg" xmlns:xlink="http://www.w3.org/1999/xlink">
    <!-- Generator: Sketch 46.1 (44463) - http://www.bohemiancoding.com/sketch -->
    <title>logo_white</title>
    <desc>Created with Sketch.</desc>
    <defs></defs>
    <g id="Page-1" stroke="none" stroke-width="1" fill="none" fill-rule="evenodd">
        <g id="logo_white" fill-rule="nonzero">
            <g id="NB_black">
                <polygon id="Shape" fill="#FFFFFF" points="13.7166836 0 12.7731641 0 12.7731641 17.53125 1.40947547 0 0 0 0 20.2763158 0.943519459 20.2763158 0.943519459 4.62335526 11.1166159 20.1480263 11.2011844 20.2763158 13.7166836 20.2763158"></polygon>
                <path d="M28.3553299,7.28125 C27.0586125,6.11184211 25.3556345,5.51809211 23.2944839,5.51809211 C21.2333333,5.51809211 19.4971912,6.20065789 18.154044,7.54440789 C16.8108968,8.88815789 16.1210829,10.7944079 16.1210829,13.2072368 C16.1210829,15.6200658 16.7843655,17.4490132 18.0877157,18.6266447 C19.391066,19.8042763 21.0890694,20.3947368 23.15022,20.3947368 C25.2113706,20.3947368 26.9475127,19.7121711 28.2906599,18.3684211 C29.6338071,17.0246711 30.3186464,15.1184211 30.3186464,12.7055921 C30.3186464,10.2927632 29.6586802,8.45888158 28.3553299,7.28125 Z M19.8719459,18.0690789 C19.0428426,17.0378289 18.628291,15.40625 18.628291,13.2203947 C18.628291,11.0345395 19.0876142,9.30756579 19.9913367,8.09703947 C20.8950592,6.88651316 21.9811844,6.3125 23.3375973,6.3125 C24.6940102,6.3125 25.7552623,6.80592105 26.5760745,7.83717105 C27.3968866,8.86842105 27.8197293,10.5016447 27.8197293,12.6858553 C27.8197293,14.8700658 27.3604061,16.5986842 26.4566836,17.8092105 C25.5529611,19.0197368 24.4668359,19.59375 23.110423,19.59375 C21.7540102,19.59375 20.6894416,19.0953947 19.8702876,18.0690789 L19.8719459,18.0690789 Z" id="Shape" fill="#FFFFFF"></path>
                <path d="M46.42978,20.2763158 L51.6697124,8.84210526 C51.9033152,8.31860819 52.0268798,7.75337312 52.0328596,7.18092105 C52.0316062,7.02134816 52.0155086,6.86223047 51.9847716,6.70559211 C51.9361847,6.48676962 51.8449295,6.27948157 51.7161421,6.09539474 C51.6188823,5.91815772 51.4779823,5.7682177 51.3065651,5.65953947 L51.120846,5.56743421 L50.5968528,6.08552632 L50.8124196,6.28618421 C51.0578342,6.51315789 51.1755668,6.85197368 51.1755668,7.31743421 C51.1877629,7.75863548 51.0831345,8.19529932 50.8721151,8.58388158 L47.0350254,16.8240132 L42.8646362,5.63157895 L40.2662267,5.63157895 L41.417022,8.74671053 L37.6694755,16.8273026 L33.4957699,5.63157895 L30.8973604,5.63157895 L36.3909983,20.2697368 L37.0542809,20.2697368 L41.8382064,9.83552632 L45.7532318,20.2697368 L46.42978,20.2763158 Z" id="Shape" fill="#FFFFFF"></path>
                <path d="M97.7064975,39.2845395 L95.8824704,38.2384868 C95.7418945,38.1579846 95.5686978,38.1579846 95.4281218,38.2384868 L93.6040948,39.2845395 C93.4631544,39.3652497 93.3764997,39.5145658 93.3769205,39.6759868 L93.3769205,41.7763158 C93.3764997,41.9377368 93.4631544,42.0870529 93.6040948,42.1677632 L95.4281218,43.2138158 C95.5686978,43.2943181 95.7418945,43.2943181 95.8824704,43.2138158 L97.7064975,42.1677632 C97.8474378,42.0870529 97.9340926,41.9377368 97.9336717,41.7763158 L97.9336717,39.6759868 C97.9340926,39.5145658 97.8474378,39.3652497 97.7064975,39.2845395 L97.7064975,39.2845395 Z" id="Shape" fill="#EE7670"></path>
                <path d="M25.536379,33.3881579 C24.8572463,32.8440667 24.0640744,32.4574456 23.21489,32.2565789 C24.1683587,31.9144737 24.909577,31.4226974 25.4285956,30.7861842 C26.1552559,29.8861534 26.539719,28.7613458 26.5147208,27.6085526 C26.5147208,24.3371711 24.0589171,22.6743421 19.2186125,22.6743421 C17.5371912,22.6743421 15.5705584,22.75 13.3800677,22.8996711 L13.1130964,22.9177632 L13.1130964,42.9506579 L19.5801015,42.9506579 C24.4220643,42.9506579 26.8762098,41.0263158 26.8762098,37.2319079 C26.8878173,35.4243421 26.4334687,34.1282895 25.536379,33.3881579 Z M19.9581726,31.9424342 L16.0448054,31.9424342 L16.0448054,23.6842105 C17.0998235,23.5763474 18.1596644,23.5214528 19.2202707,23.5197368 C20.7126565,23.5197368 21.8336041,23.8766447 22.5698477,24.5805921 C23.3060914,25.2845395 23.6742132,26.3157895 23.6742132,27.65625 C23.6742132,30.4276316 22.4537733,31.8289474 19.9581726,31.9342105 L19.9581726,31.9424342 Z M16.0448054,32.7927632 L19.9515398,32.7927632 C21.2980034,32.8289474 22.3178003,33.1217105 22.9810829,33.6825658 C23.6443655,34.2434211 23.9577665,35.3634868 23.9577665,37.0690789 C23.9577665,38.7746711 23.6261252,40.0855263 22.9628426,40.9029605 C22.2995601,41.7203947 21.1752961,42.1052632 19.5900508,42.1052632 L16.0448054,42.1052632 L16.0448054,32.7927632 Z" id="Shape" fill="#FFFFFF"></path>
                <path d="M39.4769205,29.6398026 C38.3675804,28.6776316 36.9896108,28.1907895 35.3712014,28.1907895 C33.368088,28.1907895 31.6949577,28.8733553 30.3965821,30.2203947 C29.0982064,31.5674342 28.4432149,33.46875 28.4432149,35.8782895 C28.4432149,38.2878289 29.0749915,40.1167763 30.3203046,41.2927632 C31.5656176,42.46875 33.1906599,43.0608553 35.1589509,43.0608553 C36.9417246,43.0863935 38.7138437,42.7841452 40.3856176,42.1694079 L40.6625381,42.0625 L40.3524535,41.3421053 L40.0937733,41.4407895 C38.6577665,41.9884868 36.9929272,42.2631579 35.1440271,42.2631579 C33.8837902,42.2631579 32.8971574,41.7697368 32.122775,40.7434211 C31.3483926,39.7171053 30.9454484,38.0444079 30.9454484,35.7894737 C30.9454484,35.3486842 30.9653469,34.9144737 31.0034856,34.4967105 L41.1649746,34.4967105 L41.1649746,33.9309211 C41.1649746,32.0575658 40.5962098,30.6118421 39.4769205,29.6398026 Z M38.6478173,33.7088816 L31.1062944,33.7088816 C31.3483926,32.2746711 31.8458545,31.1266447 32.5986802,30.2976974 C33.3913029,29.4144737 34.2568866,28.9819079 35.2650761,28.9819079 C36.2171712,28.9607965 37.1192429,29.4038669 37.6794247,30.1677632 L37.6794247,30.1677632 C38.2730626,30.9342105 38.6030457,32.1233553 38.6544501,33.7072368 L38.6478173,33.7088816 Z" id="Shape" fill="#FFFFFF"></path>
                <path d="M54.3543486,42.1052632 L54.3261591,42.1052632 C54.1520474,42.0904605 53.9795939,41.90625 53.8651777,41.7549342 C53.6860914,41.5164474 53.59489,41.1513158 53.59489,40.6726974 L53.59489,31.2335526 C53.59489,30.5641447 53.321286,29.9177632 52.7840271,29.3273026 C52.0958714,28.5625 50.7626734,28.1907895 48.7098139,28.1907895 C46.8913813,28.2006236 45.096979,28.6036243 43.4516413,29.3717105 L43.1664298,29.5016447 L43.577665,30.2138158 L43.8263959,30.0740132 C44.4602054,29.7607114 45.1277391,29.5195925 45.8162437,29.3552632 C46.5898333,29.129857 47.3897504,29.0054532 48.1957699,28.9851974 C48.7378177,28.9657932 49.2786318,29.0489635 49.7893063,29.2302632 C50.0966715,29.3343109 50.3688073,29.5210946 50.5752961,29.7697368 C50.7272303,29.9856464 50.8551072,30.2172639 50.9566836,30.4605263 C51.0293954,30.5979105 51.0594024,30.7535954 51.0429103,30.9078947 C51.0024657,31.04426 51.0024657,31.1892926 51.0429103,31.3256579 L51.0429103,35.6019737 C50.1110901,35.5463266 49.1763023,35.5633747 48.2471743,35.6529605 C45.7134349,35.8174342 44.1016582,36.2401316 43.3272758,36.96875 C42.9243316,37.3470395 42.6838917,37.6940789 42.5943486,38.03125 C42.5167313,38.3071541 42.4754854,38.5918711 42.4716413,38.8782895 C42.4712182,39.1234718 42.4911844,39.3682709 42.5313367,39.6101974 C42.8762437,41.9013158 44.3371235,43.0641447 46.8741794,43.0641447 C48.6982064,43.0641447 50.1043655,42.4243421 51.0893401,41.1611842 C51.2319558,41.5378124 51.4687563,41.8722999 51.7774958,42.1332237 C52.3114382,42.6842105 53.241692,42.9555921 54.6246362,42.9555921 L55.7853807,42.9555921 L55.7853807,42.1546053 L54.6445347,42.1546053 L54.3543486,42.1052632 Z M49.8440271,41.3108553 C49.1525415,41.9311238 48.2525467,42.2730652 47.3202369,42.2697368 C46.822775,42.2697368 45.3138071,42.2697368 45.08,39.5411184 C45.0617597,39.3667763 45.0534687,39.2121711 45.0534687,39.0625 C45.0534687,38.3141447 45.2474788,37.7253289 45.6305245,37.3125 C45.8958376,37.0263158 46.5674112,36.6447368 48.2604399,36.4457237 C48.7637304,36.3906795 49.2696999,36.3632255 49.7760406,36.3634868 C50.1955668,36.3634868 50.6184095,36.3766447 51.0362775,36.4013158 L51.0362775,39.5263158 C50.9815567,40.0805921 50.5752961,40.6809211 49.8440271,41.3075658 L49.8440271,41.3108553 Z" id="Shape" fill="#FFFFFF"></path>
                <path d="M69.9945516,42.1052632 L69.9663621,42.1052632 C69.7922504,42.0904605 69.619797,41.90625 69.5053807,41.7549342 C69.3262944,41.5164474 69.2350931,41.1513158 69.2350931,40.6726974 L69.2350931,28.3026316 L66.6748223,28.3026316 L66.6748223,38.6792763 C66.6018613,39.3733553 66.1193232,40.1595395 65.2437902,40.9950658 C64.3682572,41.8305921 63.3749915,42.2697368 62.2507276,42.2697368 C61.7990564,42.2874018 61.3492883,42.2024544 60.9357699,42.0213816 C60.245956,41.6644737 59.8977327,40.7911184 59.8977327,39.4292763 L59.8977327,28.3026316 L57.3374619,28.3026316 L57.3374619,39.3980263 C57.3374619,40.3848684 57.6077496,41.2072368 58.1367174,41.8273026 C58.4550931,42.2286184 58.9757699,42.5411184 59.683824,42.7532895 C60.534491,42.9792567 61.413475,43.0828367 62.2938409,43.0608553 C63.4086029,43.055428 64.4854122,42.6586192 65.3333333,41.9407895 C65.8442157,41.5359638 66.2976819,41.0646049 66.6814552,40.5394737 L66.7096447,41.1578947 C66.7328596,41.5756579 66.9815905,41.9802632 67.4508629,42.3733553 C67.9201354,42.7664474 68.5684941,42.9457237 69.4092047,42.9457237 L71.427242,42.9457237 L71.427242,42.1546053 L70.2863959,42.1546053 L69.9945516,42.1052632 Z" id="Shape" fill="#FFFFFF"></path>
                <path d="M79.7149577,41.7236842 C78.8964929,42.0551613 78.0221257,42.2298421 77.1381049,42.2384868 C76.3686971,42.2384868 75.8861591,42.0230263 75.6639594,41.5805921 C75.4102538,41.0871711 75.2825719,40.2319079 75.2825719,39.0608553 L75.2825719,29.0970395 L79.6254146,29.0970395 L79.6254146,28.3026316 L75.2825719,28.3026316 L75.2825719,25.4934211 L72.720643,25.4934211 L72.720643,28.3092105 L72.1319797,28.3092105 L72.1319797,29.1036184 L72.7272758,29.1036184 L72.7272758,39.0394737 C72.7272758,40.6266447 73.0589171,41.6710526 73.7387817,42.2286184 C74.4020643,42.7664474 75.3770897,43.0394737 76.6605415,43.0394737 C77.8022363,43.0574433 78.937733,42.8696382 80.0117766,42.4851974 L80.2787479,42.3848684 L79.9869036,41.6118421 L79.7149577,41.7236842 Z" id="Shape" fill="#FFFFFF"></path>
                <path d="M93.3719459,29.3782895 C93.3233589,29.159467 93.2321038,28.9521789 93.1033164,28.7680921 C93.0060566,28.5908551 92.8651566,28.4409151 92.6937394,28.3322368 L92.5080203,28.2401316 L91.9807107,28.7615132 L92.1962775,28.9621711 C92.441692,29.1891447 92.5594247,29.5279605 92.5594247,29.9934211 C92.5716985,30.4346303 92.4670653,30.8713137 92.2559729,31.2598684 L88.2,39.6019737 L83.9649408,28.3026316 L81.3665313,28.3026316 L86.7606768,42.6842105 L84.4391878,47.5888158 C83.9732318,48.6480263 83.3364805,49.1628289 82.4874788,49.1628289 C82.1182617,49.1536337 81.75168,49.0983747 81.396379,48.9983553 L81.0365482,48.9046053 L81.0365482,49.7269737 L81.2537733,49.78125 C81.7306733,49.9075716 82.2211488,49.976597 82.7146531,49.9868421 C83.7228426,49.9868421 84.5635533,49.2582237 85.2168866,47.8223684 L87.5997293,42.7878289 L93.0552284,31.5148026 C93.2888313,30.9913056 93.4123959,30.4260705 93.4183756,29.8536184 C93.4176594,29.6940968 93.402117,29.5349805 93.3719459,29.3782895 Z" id="Shape" fill="#FFFFFF"></path>
            </g>
        </g>
    </g>
</svg>