<?xml version="1.0" encoding="UTF-8"?>
<svg width="152px" height="36px" viewBox="0 0 152 36" version="1.1" xmlns="http://www.w3.org/2000/svg" xmlns:xlink="http://www.w3.org/1999/xlink">
    <!-- Generator: Sketch 47.1 (45422) - http://www.bohemiancoding.com/sketch -->
    <title>Now_Beauty_logo 1</title>
    <desc>Created with Sketch.</desc>
    <defs></defs>
    <g id="Page-1" stroke="none" stroke-width="1" fill="none" fill-rule="evenodd">
        <g id="Now_Beauty_logo-1" fill="#33B853">
            <g id="logo" transform="translate(1.000000, 2.000000)">
                <path d="M24.6621622,26.4657534 C23.9301765,26.4657534 23.3178516,26.2191805 22.8251689,25.7260274 C22.3324863,25.2328742 22.0861486,24.6301405 22.0861486,23.9178082 L22.0861486,8.71232877 L18.7077703,12 C18.0320912,12.6575375 17.2649255,13.1643818 16.40625,13.5205479 C15.5475745,13.8767141 14.6396444,14.0547945 13.6824324,14.0547945 C12.7252204,14.0547945 11.8102521,13.8767141 10.9375,13.5205479 C10.0647479,13.1643818 9.30462035,12.6575375 8.65709459,12 L5.23648649,8.67123288 L5.23648649,23.9178082 C5.23648649,24.6301405 4.98311064,25.2328742 4.47635135,25.7260274 C3.96959206,26.2191805 3.35022889,26.4657534 2.61824324,26.4657534 C1.8862576,26.4657534 1.26689443,26.2191805 0.760135135,25.7260274 C0.253375845,25.2328742 0,24.6301405 0,23.9178082 L0,2.5890411 C0,1.87670877 0.253375845,1.27397507 0.760135135,0.780821918 C1.26689443,0.287668767 1.8862576,0.0410958904 2.61824324,0.0410958904 C3.15315583,0.0410958904 3.64583108,0.191779315 4.09628378,0.493150685 L4.09628378,0.452054795 L4.43412162,0.739726027 L11.9510135,8.09589041 C12.4577728,8.53424877 13.0349067,8.75342466 13.6824324,8.75342466 C14.3018049,8.75342466 14.8648623,8.53424877 15.3716216,8.09589041 L23.1418919,0.493150685 L23.1841216,0.493150685 C23.6345743,0.191779315 24.1272496,0.0410958904 24.6621622,0.0410958904 C25.3941478,0.0410958904 26.013511,0.287668767 26.5202703,0.780821918 C27.0270296,1.27397507 27.2804054,1.87670877 27.2804054,2.5890411 L27.2804054,23.9178082 C27.2804054,24.6301405 27.0270296,25.2328742 26.5202703,25.7260274 C26.013511,26.2191805 25.3941478,26.4657534 24.6621622,26.4657534 Z M114.484797,2.34246575 C115.442009,2.97260589 116.293634,3.70547527 117.039696,4.54109589 C117.785758,5.37671651 118.41216,6.28081705 118.918919,7.25342466 C119.425678,8.22603226 119.81278,9.25341925 120.080236,10.3356164 C120.347693,11.4178136 120.467342,12.5068438 120.439189,13.6027397 C120.382883,15.000007 120.11543,16.3630071 119.636824,17.6917808 C119.158218,19.0205546 118.482549,20.2465697 117.609797,21.369863 C116.511819,22.7671303 115.174557,23.897256 113.597973,24.760274 C112.021389,25.623292 110.346293,26.1643825 108.572635,26.3835616 C106.770824,26.6027408 105.004232,26.4726051 103.272804,25.9931507 C101.541376,25.5136962 99.9577774,24.7534299 98.5219595,23.7123288 L98.5219595,23.6712329 L98.5219595,30.4520548 C98.5219595,31.1643871 98.2685836,31.7671208 97.7618243,32.260274 C97.255065,32.7534271 96.6357019,33 95.9037162,33 C95.1717306,33 94.5523674,32.7534271 94.0456081,32.260274 C93.5388488,31.7671208 93.285473,31.1643871 93.285473,30.4520548 L93.285473,13.0684932 C93.285473,12.849314 93.2925112,12.6369873 93.3065878,12.4315068 C93.3206645,12.2260264 93.3417791,12.0136997 93.3699324,11.7945205 C93.4825456,10.6712273 93.7570361,9.58219705 94.1934122,8.52739726 C94.6297882,7.47259747 95.1787692,6.49315521 95.8403716,5.5890411 C96.501974,4.68492699 97.276178,3.86986664 98.1630068,3.14383562 C99.0498355,2.41780459 100.014071,1.80822164 101.055743,1.31506849 C103.223547,0.328762192 105.503929,-0.0753433562 107.896959,0.102739726 C110.289989,0.280822808 112.485913,1.02739068 114.484797,2.34246575 Z M104.160366,5.51313271 C104.131888,5.52473686 104.103489,5.53634102 104.075169,5.54794521 C103.807713,5.65753479 103.547299,5.78082123 103.293919,5.91780822 C102.252247,6.35616658 101.351355,7.01369425 100.591216,7.89041096 C99.6058509,9.01370425 98.9653731,10.3013626 98.6697635,11.7534247 C98.3741539,13.2054867 98.4797272,14.63013 98.9864865,16.0273973 C99.3806326,17.0684984 99.9718429,17.9999959 100.760135,18.8219178 C101.548427,19.6438397 102.477472,20.2876689 103.547297,20.7534247 C104.617122,21.191783 105.729161,21.4109589 106.883446,21.4109589 C108.037731,21.4109589 109.149769,21.1780845 110.219595,20.7123288 C110.670047,20.4931496 111.099379,20.2602752 111.507601,20.0136986 C111.915824,19.7671221 112.302926,19.4794537 112.668919,19.1506849 C113.400905,18.4383526 113.992115,17.6232923 114.442568,16.7054795 C114.89302,15.7876666 115.146396,14.8219229 115.202703,13.8082192 C115.343469,11.8904014 114.850794,10.1643912 113.724662,8.63013699 C113.161596,7.83561247 112.478889,7.1643863 111.67652,6.61643836 C110.874151,6.06849041 110.008451,5.67123411 109.079392,5.42465753 C107.164968,4.90410699 105.320955,5.02739342 103.547297,5.79452055 C103.751655,5.69508523 103.956009,5.60129005 104.160366,5.51313271 L104.160366,5.51313271 Z M129.124399,17.1861843 C129.570666,17.960944 130.138429,18.6568667 130.827703,19.2739726 C131.531535,19.9041127 132.319815,20.3972585 133.192568,20.7534247 C134.121626,21.1369882 135.149206,21.3561641 136.275338,21.4109589 L136.444257,21.4109589 C137.176242,21.4109589 137.788567,21.6506825 138.28125,22.130137 C138.773933,22.6095914 139.02027,23.2054759 139.02027,23.9178082 C139.02027,24.6301405 138.773933,25.2328742 138.28125,25.7260274 C137.788567,26.2191805 137.176242,26.4657534 136.444257,26.4657534 L135.958615,26.4657534 C135.803772,26.4657534 135.655969,26.4520549 135.515203,26.4246575 C134.332764,26.3424653 133.178497,26.109591 132.052365,25.7260274 C130.926233,25.3424638 129.877539,24.8424688 128.90625,24.2260274 C127.934961,23.609586 127.055184,22.8767166 126.266892,22.0273973 C125.4786,21.1780779 124.817007,20.2328819 124.282095,19.1917808 C123.240423,17.136976 122.768862,14.9657649 122.867399,12.6780822 C122.965935,10.3903995 123.634566,8.27398233 124.873311,6.32876712 C124.985924,6.16438274 125.105574,5.99315158 125.232264,5.81506849 C125.358953,5.63698541 125.492679,5.46575425 125.633446,5.30136986 C126.675118,3.9315 127.941997,2.81507281 129.434122,1.95205479 C130.926246,1.08903678 132.516883,0.506850822 134.206081,0.205479452 C136.373885,-0.123289315 138.513503,0.0410926027 140.625,0.698630137 C142.736497,1.35616767 144.552357,2.45204712 146.072635,3.98630137 C147.31138,5.21918425 148.275616,6.61643055 148.965372,8.17808219 C149.655127,9.73973384 150,11.383553 150,13.109589 L150,13.2739726 C149.971847,13.9863049 149.697356,14.5890386 149.17652,15.0821918 C148.655684,15.5753449 148.029283,15.8356163 147.297297,15.8630137 L128.505068,15.8630137 C128.617681,16.1917825 128.772522,16.5342448 128.969595,16.890411 C129.021196,16.9908433 129.072798,17.0894342 129.124399,17.1861843 L129.124399,17.1861843 Z M131.967905,6.36986301 C132.953271,5.76712027 134.02308,5.37671322 135.177365,5.19863014 C136.33165,5.02054705 137.457765,5.08219027 138.555743,5.38356164 C139.681875,5.68493301 140.702417,6.18492801 141.617399,6.88356164 C142.532381,7.58219527 143.257317,8.4246526 143.79223,9.4109589 C144.045609,9.87671466 144.242679,10.3150664 144.383446,10.7260274 L128.505068,10.7260274 C128.814754,9.84931068 129.2652,9.03425034 129.856419,8.28082192 C130.447638,7.52739349 131.15146,6.89041356 131.967905,6.36986301 Z M31.0810811,23.632661 L31.0810811,23.632661 C33.9115784,21.1149739 39.7812288,14.6203918 39.7812288,14.6203918 C40.9191963,13.6797754 43.1371874,16.9505678 47.6410835,13.1252437 C50.4470792,10.7427204 51.3555099,6.48397417 49.9273538,4.8073671 C48.4994264,3.13102858 44.0840866,3.27278198 41.214724,5.5809147 C36.6085716,9.28619341 39.4933278,12.0058539 38.3553603,12.9464703 C38.3553603,12.9464703 34.400848,15.3501409 31.0810811,17.5513176 L31.0810811,13.2328767 C31.0810811,11.6164303 31.3626098,10.0958975 31.9256757,8.67123288 C32.6013547,6.91779945 33.6148581,5.35617123 34.9662162,3.98630137 C36.2331144,2.75341849 37.6900255,1.78082548 39.3369932,1.06849315 C40.9839609,0.356160822 42.7505536,0 44.6368243,0 C46.523095,0 48.2896877,0.349311575 49.9366554,1.04794521 C51.5836231,1.74657884 53.0194196,2.69177486 54.2440878,3.88356164 C55.4687561,5.07534842 56.4400302,6.47944397 57.1579392,8.09589041 C57.8758482,9.71233685 58.2347973,11.4246485 58.2347973,13.2328767 L58.2347973,23.9178082 C58.2347973,24.6301405 57.9814215,25.2328742 57.4746622,25.7260274 C56.9679029,26.2191805 56.3485397,26.4657534 55.6165541,26.4657534 C54.8845684,26.4657534 54.258167,26.2191805 53.7373311,25.7260274 C53.2164951,25.2328742 52.9560811,24.6301405 52.9560811,23.9178082 L52.9560811,18.9863014 L44.6368243,18.9863014 L44.6368243,18.9452055 C44.5523644,18.9726029 44.3975236,18.9863014 44.1722973,18.9863014 C43.2432386,18.9863014 42.3564231,19.1232863 41.5118243,19.3972603 C40.6672255,19.6712342 39.9000598,20.0547921 39.2103041,20.5479452 C38.5205484,21.0410984 37.9222998,21.6301336 37.4155405,22.3150685 C36.9087813,23.0000034 36.5287175,23.7534205 36.2753378,24.5753425 C36.2471845,24.6027399 36.2331081,24.6301368 36.2331081,24.6575342 C36.2331081,24.6849316 36.2190317,24.7123286 36.1908784,24.739726 C36.0219586,25.2602766 35.712277,25.6780806 35.2618243,25.9931507 C34.8113716,26.3082208 34.2905435,26.4657534 33.6993243,26.4657534 C32.9673387,26.4657534 32.3479755,26.2191805 31.8412162,25.7260274 C31.3344569,25.2328742 31.0810811,24.6301405 31.0810811,23.9178082 L31.0810811,23.632661 Z M61.7820946,23.6426476 L61.7820946,23.6426476 C65.0559874,20.4061504 69.467266,15.5341362 69.467266,15.5341362 C70.6047121,16.8694596 72.9688427,17.5196029 75.7638295,15.2093346 C78.4366734,13.0000266 82.2102493,9.6859077 81.6415539,7.93716996 L76.1031187,12.5151062 C74.617742,13.7428826 73.354097,11.9906189 74.5701636,10.9854478 L78.6565879,7.60770848 C79.6021526,6.82612763 80.9562221,5.26123507 80.5693661,4.80707918 C80.1827587,4.35321517 78.3834563,5.39482334 77.4375937,6.17665044 L73.3511693,9.55438976 C72.1354007,10.5593146 70.60329,9.02945557 72.0883688,7.80192546 L77.626804,3.22398921 C75.9767464,2.36858182 72.0087973,5.45391721 69.3359534,7.66322516 C66.5409666,9.97349345 66.7801582,12.3795624 67.9176043,13.7148858 C67.9176043,13.7148858 64.8945449,15.5562787 61.7820946,17.5687205 L61.7820946,13.2328767 C61.7820946,11.6164303 62.0636233,10.0958975 62.6266892,8.67123288 C63.3023682,6.91779945 64.3158716,5.35617123 65.6672297,3.98630137 C66.934128,2.75341849 68.3910391,1.78082548 70.0380068,1.06849315 C71.6849745,0.356160822 73.4515671,0 75.3378378,0 C77.2241085,0 78.9907012,0.349311575 80.6376689,1.04794521 C82.2846366,1.74657884 83.7204331,2.69177486 84.9451014,3.88356164 C86.1697696,5.07534842 87.1410437,6.47944397 87.8589527,8.09589041 C88.5768617,9.71233685 88.9358108,11.4246485 88.9358108,13.2328767 L88.9358108,23.9178082 C88.9358108,24.6301405 88.682435,25.2328742 88.1756757,25.7260274 C87.6689164,26.2191805 87.0495532,26.4657534 86.3175676,26.4657534 C85.5855819,26.4657534 84.9591805,26.2191805 84.4383446,25.7260274 C83.9175087,25.2328742 83.6570946,24.6301405 83.6570946,23.9178082 L83.6570946,18.9863014 L75.3378378,18.9863014 C75.253378,18.9726029 75.0985372,18.9863014 74.8733108,18.9863014 C73.9442521,18.9863014 73.0574367,19.1232863 72.2128378,19.3972603 C71.368239,19.6712342 70.6010733,20.0547921 69.9113176,20.5479452 C69.2215619,21.0410984 68.6233133,21.6301336 68.1165541,22.3150685 C67.6097948,23.0000034 67.229731,23.7534205 66.9763514,24.5753425 C66.9481981,24.6027399 66.9341216,24.6301368 66.9341216,24.6575342 C66.9341216,24.6849316 66.9200452,24.7123286 66.8918919,24.739726 C66.7229721,25.2602766 66.4132905,25.6780806 65.9628378,25.9931507 C65.5123851,26.3082208 64.991557,26.4657534 64.4003378,26.4657534 C63.6683522,26.4657534 63.048989,26.2191805 62.5422297,25.7260274 C62.0354704,25.2328742 61.7820946,24.6301405 61.7820946,23.9178082 L61.7820946,23.6426476 Z" id="Combined-Shape"></path>
            </g>
        </g>
    </g>
</svg>