<?xml version="1.0" encoding="UTF-8"?>
<svg width="133px" height="133px" viewBox="0 0 133 133" version="1.1" xmlns="http://www.w3.org/2000/svg" xmlns:xlink="http://www.w3.org/1999/xlink">
    <!-- Generator: Sketch 46.2 (44496) - http://www.bohemiancoding.com/sketch -->
    <title>Group 33 Copy</title>
    <desc>Created with Sketch.</desc>
    <defs></defs>
    <g id="Page-1" stroke="none" stroke-width="1" fill="none" fill-rule="evenodd">
        <g id="Group-33-Copy" transform="translate(1.000000, 1.000000)">
            <g id="Group-31">
                <g id="Group-25">
                    <g id="Group-29">
                        <circle id="Oval-3" stroke="#E4F4FE" stroke-width="0.789473684" fill="#FFFFFF" cx="65" cy="65" r="60"></circle>
                        <circle id="Oval-3-Copy" stroke="#A4C6DC" stroke-width="0.789473684" opacity="0.355865036" cx="65.5" cy="65.5" r="65.5"></circle>
                        <g id="graph" transform="translate(25.000000, 45.000000)" fill-rule="nonzero">
                            <g id="Group" transform="translate(10.566038, 10.500000)" fill="#9777A8">
                                <path d="M8.0090566,4.92 L0.442264151,12.4395 C-0.147924528,13.026 -0.147924528,13.974 0.442264151,14.5605 C0.736603774,14.853 1.12301887,15 1.50943396,15 C1.89584906,15 2.28226415,14.853 2.57660377,14.5605 L10.1433962,7.041 C10.7335849,6.4545 10.7335849,5.5065 10.1433962,4.92 C9.55320755,4.3335 8.59773585,4.335 8.0090566,4.92 Z" id="Shape"></path>
                                <path d="M22.1796226,4.92 C21.589434,4.3335 20.6354717,4.3335 20.045283,4.92 C19.4550943,5.5065 19.4550943,6.4545 20.045283,7.041 L29.1396226,16.0785 C29.4339623,16.371 29.8203774,16.518 30.2067925,16.518 C30.5932075,16.518 30.9796226,16.371 31.2739623,16.0785 C31.8641509,15.492 31.8641509,14.544 31.2739623,13.9575 L22.1796226,4.92 Z" id="Shape"></path>
                                <path d="M56.9162264,0.4395 C56.3260377,-0.147 55.3720755,-0.147 54.7818868,0.4395 L39.6875472,15.4395 C39.0973585,16.026 39.0973585,16.974 39.6875472,17.5605 C39.9818868,17.853 40.3683019,18 40.754717,18 C41.1411321,18 41.5275472,17.853 41.8218868,17.5605 L56.9162264,2.5605 C57.5064151,1.974 57.5064151,1.026 56.9162264,0.4395 Z" id="Shape"></path>
                            </g>
                            <ellipse id="Oval" fill="#45CDD8" cx="7.56528302" cy="29.982" rx="7.54716981" ry="7.5"></ellipse>
                            <ellipse id="Oval" fill="#3791E5" cx="25.6603774" cy="12" rx="7.54716981" ry="7.5"></ellipse>
                            <ellipse id="Oval" fill="#3791E5" cx="72.4528302" cy="7.5" rx="7.54716981" ry="7.5"></ellipse>
                            <ellipse id="Oval" fill="#45CDD8" cx="45.2830189" cy="31.5" rx="7.54716981" ry="7.5"></ellipse>
                        </g>
                    </g>
                </g>
            </g>
        </g>
    </g>
</svg>