<?xml version="1.0" encoding="UTF-8"?>
<svg width="100px" height="120px" viewBox="0 0 100 120" version="1.1" xmlns="http://www.w3.org/2000/svg" xmlns:xlink="http://www.w3.org/1999/xlink">
    <!-- Generator: Sketch 46.1 (44463) - http://www.bohemiancoding.com/sketch -->
    <title>relax</title>
    <desc>Created with Sketch.</desc>
    <defs></defs>
    <g id="Page-1" stroke="none" stroke-width="1" fill="none" fill-rule="evenodd">
        <g id="relax">
            <g id="Group-9">
                <rect id="Rectangle-2" x="0" y="0" width="100" height="120"></rect>
                <g id="Group-4" transform="translate(10.000000, 8.000000)">
                    <path d="M58.9542052,28.3241242 L51.6616849,21.0104998 C50.3211247,19.6642498 48.142432,19.6642498 46.80206,21.0104998 L40.6398194,27.1920004 L34.4790735,21.0104998 C33.1355213,19.6642498 30.9598206,19.6642498 29.6179512,21.0104998 L23.4558961,27.1920004 L17.2936525,21.0104998 C15.9515964,19.6642498 13.7758957,19.6642498 12.4338394,21.0104998 L5.14299908,28.3241242 C3.80094295,29.6701869 3.80094295,31.8528727 5.14299908,33.2004375 L12.4338394,40.5127487 C13.7758957,41.8603104 15.9515964,41.8603104 17.2936525,40.5127487 L23.4558961,34.3312481 L29.6179512,40.5127487 C30.960006,41.8603104 33.1357067,41.8603104 34.4790735,40.5127487 L40.6398194,34.3312481 L46.80206,40.5127487 C48.142432,41.8603104 50.3211247,41.8603104 51.6616849,40.5127487 L58.954211,33.2004375 C60.2945772,31.8528756 60.2945772,29.6701869 58.9542052,28.3241242 Z" id="Fill-2" fill="#000000" opacity="0.100000001"></path>
                    <path d="M22.8805598,3.40218758 C22.4454191,1.91381263 21.6085985,0.862125098 21.4990634,0.730312584 L21.4975688,0.728812605 C21.4975688,0.727312624 21.4960742,0.725812597 21.4945768,0.725812597 C21.1295297,0.283500105 20.5775665,0.000750079749 19.9599963,0.000750079749 C18.8588735,0.000750079749 17.9667249,0.89718765 17.9667249,2.00175009 C17.9667249,2.48362504 18.1360718,2.92762506 18.4209292,3.27318763 L18.4136391,3.26437496 C18.4179372,3.27018748 18.8794344,3.85612498 19.0766293,4.61043763 C19.2796196,5.38818741 19.1218637,5.96531259 18.5480307,6.54393767 C16.931583,8.17143772 16.3956942,10.3012505 17.0368144,12.5437503 C17.4704606,14.0628748 18.3130766,15.138 18.4078437,15.2566881 L18.4078437,15.2551875 C18.7743854,15.709312 19.3321441,16.0006871 19.9601787,16.0006871 C21.0611133,16.0006871 21.9534501,15.1057491 21.9534501,14.0011868 C21.9534501,13.5251241 21.7884041,13.0901241 21.5110193,12.7458744 L21.5125138,12.7458744 C21.5082157,12.7400622 21.0773731,12.1672497 20.8698963,11.4406872 C20.6259725,10.5883119 20.7764383,9.96712446 21.3723269,9.36656212 C22.9915895,7.73643778 23.5274755,5.61825013 22.8805598,3.40218758 Z M18.4224293,3.27468752 C18.4224293,3.27468752 18.4239239,3.27618741 18.4254213,3.27768767 L18.4224293,3.27468752 Z" id="Fill-3" fill="#000000" opacity="0.100000001"></path>
                    <path d="M34.889532,3.40218758 C34.4558858,1.91381263 33.6175707,0.862125098 33.5080355,0.730312584 L33.5080355,0.728812515 C33.5065409,0.727312534 33.5050436,0.725812509 33.5050436,0.725812509 C33.1385019,0.283500015 32.5865387,0.000749990344 31.9689684,0.000749990344 C30.8678456,0.000749990344 29.975697,0.89718747 29.975697,2.00174993 C29.975697,2.48362487 30.1465385,2.92762506 30.4299013,3.27318763 L30.4241058,3.26437496 C30.4284039,3.27018748 30.8899011,3.85612498 31.0870959,4.61043763 C31.2900864,5.38818741 31.1308331,5.96531259 30.5570028,6.54393767 C28.9420495,8.17143773 28.4046664,10.3012505 29.0470957,12.5437503 C29.4807419,14.0628748 30.3233579,15.138 30.4168159,15.2566881 L30.4183103,15.2551875 C30.7833576,15.709312 31.3426108,16.0006871 31.9691508,16.0006871 C33.0700854,16.0006871 33.9637314,15.1057491 33.9637314,14.0011868 C33.9637314,13.5251241 33.797188,13.0901241 33.5213006,12.7458744 C33.5170024,12.7400622 33.0861598,12.1672497 32.8786832,11.4406872 C32.6347593,10.5883119 32.7852252,9.96712446 33.3824228,9.36656213 C35.0005617,7.73643778 35.5364477,5.61825013 34.889532,3.40218758 Z M30.4314015,3.27468752 C30.4328961,3.27468752 30.4343935,3.27618741 30.4343935,3.27768767 L30.4314015,3.27468752 Z" id="Fill-4" fill="#000000" opacity="0.100000001"></path>
                    <path d="M45.5317759,12.7460618 C45.5259804,12.7402496 45.0966351,12.1674371 44.8891611,11.4408746 C44.6439254,10.5884993 44.7957032,9.96731184 45.391589,9.36674951 C47.009534,7.73643707 47.546729,5.6182494 46.8985069,3.40199946 C46.4633664,1.91362451 45.6252338,0.861936986 45.5170133,0.730124473 L45.5170133,0.728812515 C45.5170133,0.727312534 45.5140243,0.725812509 45.5140243,0.725812509 C45.148977,0.283500015 44.5970138,0.000749990344 43.977952,0.000749990344 C42.8783265,0.000749990344 41.9861751,0.89718747 41.9861751,2.00174993 C41.9861751,2.48362487 42.1555221,2.92762506 42.4403794,3.27318763 L42.4330893,3.26437496 C42.4373905,3.27018748 42.8988847,3.85612498 43.0960794,4.61043763 C43.2975753,5.38818741 43.1398194,5.96531259 42.5674807,6.54393767 C40.9510303,8.17143773 40.4149591,10.3012505 41.0560793,12.5437503 C41.4897254,14.0628748 42.3323415,15.138 42.4272938,15.2566881 L42.4272938,15.2551875 C42.7938357,15.709312 43.3502824,16.0006871 43.9781346,16.0006871 C45.0790718,16.0006871 45.9727121,15.1057491 45.9727121,14.0011868 C45.9727121,13.5251241 45.8061716,13.0901241 45.5287869,12.7458744 L45.5317759,12.7458744 L45.5317759,12.7460618 Z M42.4418682,3.27468752 C42.4418682,3.27468752 42.4433626,3.27618741 42.4448572,3.27768767 L42.4418682,3.27468752 Z" id="Fill-5" fill="#000000" opacity="0.100000001"></path>
                    <path d="M75.9074785,36.0011242 L59.9936454,36.0011242 C57.7917764,36.0011242 56.0044845,37.7911862 56.0044845,40.0001248 L56.0044845,47.4735002 C56.264483,45.5137509 57.9347641,44.0006246 59.9585017,44.0006246 L67.9315869,44.0006246 C70.1334559,44.0006246 71.9207477,45.7905006 71.9207477,48.0009382 L71.9207477,63.9965629 C71.9207477,66.2055015 70.1334559,67.9985617 67.9315869,67.9985617 L59.9585017,67.9985617 C57.9347641,67.9985617 56.2642948,66.4869345 56.0044845,64.5239981 L56.0044845,72 C56.0044845,74.2089384 57.7917764,75.9960021 59.9936454,75.9960021 L75.9074785,75.9960021 C78.1095357,75.9960021 79.8940211,74.2089384 79.8940211,72 L79.8940211,39.999936 C79.8942037,37.7911862 78.1097183,36.0011242 75.9074785,36.0011242 Z" id="Fill-6" fill="#D56964"></path>
                    <path d="M60.589531,28.0003136 L3.34841148,28.0003136 C3.34841148,28.0003136 -7.90859757,61.9983788 11.5257948,95.999256 L52.4123374,95.999256 C71.8450471,61.9983729 60.589531,28.0003136 60.589531,28.0003136 Z" id="Fill-7" fill="#EE7670"></path>
                    <path d="M6.63551402,32.5867509 C5.85719598,33.3675011 5.85719598,34.6331261 6.63551402,35.4151896 C7.41383204,36.1959399 8.67682198,36.1959399 9.45514,35.4151896 C10.233458,34.6331261 10.233458,33.3675011 9.45514,32.5867509 C8.67682198,31.8060006 7.41383204,31.8060006 6.63551402,32.5867509 Z" id="Fill-8" fill="#000000" opacity="0.200000003"></path>
                    <path d="M10.6233643,36.5855627 C9.84504628,37.3678121 9.84504628,38.6334371 10.6233643,39.4141873 C11.4016822,40.1949377 12.6633645,40.1949377 13.4429903,39.4141873 C14.2213082,38.6334371 14.2213082,37.3678121 13.4429903,36.5855627 C12.6633645,35.8048123 11.4016822,35.8048123 10.6233643,36.5855627 Z" id="Fill-9" fill="#000000" opacity="0.200000003"></path>
                    <path d="M14.60972,32.5867509 C13.8314021,33.3675011 13.8314021,34.6331261 14.60972,35.4151896 C15.3880381,36.1959399 16.6512148,36.1959399 17.4295329,35.4151896 C18.2078508,34.6331261 18.2078508,33.3675011 17.4295329,32.5867509 C16.6512148,31.8060006 15.3880366,31.8060006 14.60972,32.5867509 Z" id="Fill-10" fill="#000000" opacity="0.200000003"></path>
                    <path d="M50.4964495,36.5855627 C49.716637,37.3678121 49.716637,38.6334371 50.4964495,39.4141873 C51.2732731,40.1949377 52.5379443,40.1949377 53.3147679,39.4141873 C54.0945804,38.6334371 54.0945804,37.3678121 53.3147679,36.5855627 C52.5379443,35.8048123 51.2732731,35.8048123 50.4964495,36.5855627 Z" id="Fill-11" fill="#000000" opacity="0.200000003"></path>
                    <path d="M57.3041112,32.5867509 C56.5242987,31.8060006 55.2628047,31.8060006 54.4829921,32.5867509 C53.7061686,33.3675011 53.7061686,34.6331261 54.4829921,35.4151896 C55.2628047,36.1959399 56.5242987,36.1959399 57.3041112,35.4151896 C58.0809348,34.6329373 58.0809348,33.3675011 57.3041112,32.5867509 Z" id="Fill-12" fill="#000000" opacity="0.200000003"></path>
                    <path d="M18.5977572,36.5855627 C17.8194391,37.3678121 17.8194391,38.6334371 18.5977572,39.4141873 C19.3760751,40.1949377 20.6390665,40.1949377 21.4173845,39.4141873 C22.1957026,38.6334371 22.1957026,37.3678121 21.4173845,36.5855627 C20.6390665,35.8048123 19.3760751,35.8048123 18.5977572,36.5855627 Z" id="Fill-13" fill="#000000" opacity="0.200000003"></path>
                    <path d="M22.585606,32.5867509 C21.807288,33.3675011 21.807288,34.6331261 22.585606,35.4151896 C23.3639241,36.1959399 24.6256064,36.1959399 25.4052335,35.4151896 C26.1835514,34.6331261 26.1835514,33.3675011 25.4052335,32.5867509 C24.6256064,31.8060006 23.3639241,31.8060006 22.585606,32.5867509 Z" id="Fill-14" fill="#000000" opacity="0.200000003"></path>
                    <path d="M26.5719632,36.5855627 C25.7936452,37.3678121 25.7936452,38.6334371 26.5719632,39.4141873 C27.3502813,40.1949377 28.6134579,40.1949377 29.3917761,39.4141873 C30.170094,38.6334371 30.170094,37.3678121 29.3917761,36.5855627 C28.6134579,35.8048123 27.3502813,35.8048123 26.5719632,36.5855627 Z" id="Fill-15" fill="#000000" opacity="0.200000003"></path>
                    <path d="M30.5600004,32.5867509 C29.7816822,33.3675011 29.7816822,34.6331261 30.5600004,35.4151896 C31.3383183,36.1959399 32.6013097,36.1959399 33.3796277,35.4151896 C34.1579458,34.6331261 34.1579458,33.3675011 33.3796277,32.5867509 C32.6013097,31.8060006 31.3383183,31.8060006 30.5600004,32.5867509 Z" id="Fill-16" fill="#000000" opacity="0.200000003"></path>
                    <path d="M34.5478492,36.5855627 C33.7680366,37.3678121 33.7680366,38.6334371 34.5478492,39.4141873 C35.3261673,40.1949377 36.5876613,40.1949377 37.3659793,39.4141873 C38.1457918,38.6334371 38.1457918,37.3678121 37.3659793,36.5855627 C36.5876641,35.8048123 35.3261673,35.8048123 34.5478492,36.5855627 Z" id="Fill-17" fill="#000000" opacity="0.200000003"></path>
                    <path d="M38.5342064,32.5867509 C37.7558884,33.3675011 37.7558884,34.6331261 38.5342064,35.4151896 C39.3125245,36.1959399 40.5757041,36.1959399 41.3540221,35.4151896 C42.1323402,34.6331261 42.1323402,33.3675011 41.3540221,32.5867509 C40.5757041,31.8060006 39.3125245,31.8060006 38.5342064,32.5867509 Z" id="Fill-18" fill="#000000" opacity="0.200000003"></path>
                    <path d="M42.5222407,36.5855627 C41.7439226,37.3678121 41.7439226,38.6334371 42.5222407,39.4141873 C43.3005587,40.1949377 44.5620527,40.1949377 45.3418652,39.4141873 C46.1186888,38.6334371 46.1186888,37.3678121 45.3418652,36.5855627 C44.5620583,35.8048123 43.3005587,35.8048123 42.5222407,36.5855627 Z" id="Fill-19" fill="#000000" opacity="0.200000003"></path>
                    <path d="M49.3282252,32.5867509 C48.5484127,31.8060006 47.2869187,31.8060006 46.5100953,32.5867509 C45.7302826,33.3675011 45.7302826,34.6331261 46.5100953,35.4151896 C47.2869187,36.1959399 48.5484127,36.1959399 49.3282252,35.4151896 C50.1080378,34.6329373 50.1080378,33.3675011 49.3282252,32.5867509 Z" id="Fill-20" fill="#000000" opacity="0.200000003"></path>
                    <path d="M14.6871021,94.5813731 C14.2986903,94.973997 14.1029899,95.4836254 14.1029899,95.9992504 L18.0908402,95.9992504 C18.0908402,95.4836254 17.8966344,94.973814 17.506728,94.5813731 C16.7285983,93.8021278 15.46542,93.8021278 14.6871021,94.5813731 Z" id="Fill-21" fill="#000000" opacity="0.200000003"></path>
                    <path d="M22.661495,94.5813731 C22.2730832,94.973997 22.0788774,95.4836254 22.0788774,95.9992504 L26.0654198,95.9992504 C26.0654198,95.4836254 25.871214,94.973814 25.4813077,94.5813731 C24.7029897,93.8021278 23.4413075,93.8021278 22.661495,94.5813731 Z" id="Fill-22" fill="#000000" opacity="0.200000003"></path>
                    <path d="M30.6373837,94.5813731 C30.2474776,94.973997 30.0532716,95.4836254 30.0532716,95.9992504 L34.0398142,95.9992504 C34.0398142,95.4836254 33.8456084,94.973814 33.4571966,94.5813731 C32.6771959,93.8021278 31.4157019,93.8021278 30.6373837,94.5813731 Z" id="Fill-23" fill="#000000" opacity="0.200000003"></path>
                    <path d="M38.6115899,94.5813731 C38.2216836,94.973997 38.0274778,95.4836254 38.0274778,95.9992504 L42.0155178,95.9992504 C42.0155178,95.4836254 41.8213118,94.973814 41.4314056,94.5813731 C40.6530819,93.8021278 39.389905,93.8021278 38.6115899,94.5813731 Z" id="Fill-24" fill="#000000" opacity="0.200000003"></path>
                    <path d="M49.4041142,94.5813731 C48.6272907,93.8023108 47.3657966,93.8023108 46.5859841,94.5813731 C46.1975723,94.973997 46.001872,95.4836254 46.001872,95.9992504 L49.9882264,95.9992504 C49.988409,95.4836254 49.795515,94.973814 49.4041142,94.5813731 Z" id="Fill-25" fill="#000000" opacity="0.200000003"></path>
                </g>
            </g>
        </g>
    </g>
</svg>