<?xml version="1.0" encoding="UTF-8"?>
<svg width="100px" height="120px" viewBox="0 0 100 120" version="1.1" xmlns="http://www.w3.org/2000/svg" xmlns:xlink="http://www.w3.org/1999/xlink">
    <!-- Generator: Sketch 46.1 (44463) - http://www.bohemiancoding.com/sketch -->
    <title>stylists</title>
    <desc>Created with Sketch.</desc>
    <defs></defs>
    <g id="Page-1" stroke="none" stroke-width="1" fill="none" fill-rule="evenodd">
        <g id="stylists">
            <g id="Group-8">
                <rect id="Rectangle-2-Copy" x="0" y="0" width="100" height="120"></rect>
                <g id="Group-11" transform="translate(10.000000, 14.000000)">
                    <path d="M69.0962491,71.0940765 L10.9039279,71.0940765 C10.9039279,71.0940765 -4.26035745,0.000718355178 39.9994632,0.000718355178 C84.2578561,0.000718750032 69.0962491,71.0940765 69.0962491,71.0940765 Z" id="Fill-2" fill="#BE5E59"></path>
                    <path d="M72.6564298,69.4235224 L72.3328562,69.3281072 C67.60643,68.0534052 66.010535,66.823625 63.9066041,66.020778 C56.4401734,63.1569208 54.4980348,61.0962615 54.0016064,60.1219962 C53.9848218,60.0855193 53.9680371,60.0490422 53.9514268,60.0125651 L53.8899993,51.2894575 L39.9992861,51.0873091 L26.1073221,51.2894575 L26.0458945,60.0125651 C26.0291098,60.0490422 26.0151807,60.0855193 25.9983934,60.1219962 C25.5017852,61.0962615 23.5598209,63.1570964 16.0962513,66.020778 C13.9925016,66.8238006 12.3937511,68.0534052 7.66714368,69.3281072 L7.34357288,69.4235224 C3.04107257,70.855451 0.145001411,74.870212 0.145001411,79.4013881 L0.145001411,91.9991007 L39.9992888,91.9991007 L79.8548234,91.9991007 L79.8548234,79.4013881 C79.8549979,74.870212 76.9587489,70.855451 72.6564298,69.4235224 Z" id="Fill-3" fill="#575D65"></path>
                    <path d="M64.5649991,34.3289382 C64.5649991,50.388152 49.3475014,65.1672624 39.9992861,65.1672624 C30.6523212,65.1672624 15.4378562,50.3881465 15.4378562,34.3289353 C15.4378562,18.2695447 26.4337484,7.67373323 39.9992861,7.67373323 C53.5664257,7.67373459 64.5649991,18.2695474 64.5649991,34.3289382 Z" id="Fill-4" fill="#FFD8CC"></path>
                    <path d="M45.5642862,15.2711015 L70.8037513,32.6078908 C68.554998,15.8662272 60.9100014,0.000718750032 39.9992861,0.000718750032 L45.5642862,15.2711015 Z" id="Fill-5" fill="#D56964"></path>
                    <path d="M41.7905371,22.7195082 C49.9446432,16.8207279 56.9646454,11.0175395 60.5750002,7.94883585 C55.8373205,3.07786713 49.2024993,0.000718750032 39.9992861,0.000718750032 C15.5828584,0.000718750032 9.25196511,21.6386866 8.48196573,41.0390062 C16.9499996,38.7479933 28.1217846,32.6050145 41.7905371,22.7195082 Z" id="Fill-6" fill="#EE7670"></path>
                </g>
            </g>
        </g>
    </g>
</svg>